<?xml version="1.0" encoding="utf-8"?>
<!-- Generator: Adobe Illustrator 21.0.0, SVG Export Plug-In . SVG Version: 6.00 Build 0)  -->
<svg version="1.1" id="Layer_1" xmlns="http://www.w3.org/2000/svg" xmlns:xlink="http://www.w3.org/1999/xlink" x="0px" y="0px"
	 viewBox="0 0 240 37.5" style="enable-background:new 0 0 240 37.5;" xml:space="preserve">
<style type="text/css">
	.st0{fill:#FFFFFF;}
	.st1{fill:#72BF44;}
</style>
<path class="st0" d="M60.3,30.1c0-4.1-3.3-7.4-7.4-7.4s-7.4,3.3-7.4,7.4s3.3,7.4,7.4,7.4C56.9,37.5,60.3,34.2,60.3,30.1"/>
<path class="st0" d="M30.1,0C26,0,23,3,22.3,7.8c-0.7,4.4-1.2,6.4-4.6,9.8s-5.4,4-9.8,4.6C3,23.1,0,26,0,30.1c0,2,0.8,3.9,2.2,5.2
	c1.3,1.3,3.2,2.2,5.2,2.2c4.1,0,7.1-3,7.8-7.8c0.7-4.4,1.2-6.4,4.6-9.8s5.4-4,9.8-4.6c4.8-0.8,7.8-3.8,7.8-7.8c0-2-0.8-3.9-2.2-5.2
	C34,0.8,32.2,0,30.1,0"/>
<path class="st0" d="M52.9,0c-4.1,0-7.1,3-7.8,7.8c-0.7,4.4-1.2,6.4-4.6,9.8c-3.4,3.4-5.4,4-9.8,4.6C25.9,23,22.9,26,22.9,30
	c0,2,0.8,3.9,2.2,5.2c1.3,1.3,3.2,2.2,5.2,2.2c4.1,0,7.1-3,7.8-7.8c0.7-4.4,1.2-6.4,4.6-9.8c3.4-3.4,5.4-4,9.8-4.6
	c4.8-0.8,7.8-3.8,7.8-7.8c0-2-0.8-3.9-2.2-5.2C56.8,0.8,54.9,0,52.9,0"/>
<path class="st1" d="M83.1,7.4c0-4.1-3.3-7.4-7.4-7.4s-7.4,3.3-7.4,7.4s3.3,7.4,7.4,7.4C79.8,14.8,83.1,11.5,83.1,7.4"/>
<path class="st1" d="M98.5,0c-4.1,0-7.1,3-7.8,7.8c-0.7,4.4-1.2,6.4-4.6,9.8s-5.4,4-9.8,4.6C71.5,23,68.5,26,68.5,30
	c0,2,0.8,3.9,2.2,5.2c1.3,1.3,3.2,2.2,5.2,2.2c4.1,0,7.1-3,7.8-7.8c0.7-4.4,1.2-6.4,4.6-9.8s5.4-4,9.8-4.6c4.8-0.8,7.8-3.8,7.8-7.8
	c0-2-0.8-3.9-2.2-5.2C102.4,0.8,100.5,0,98.5,0"/>
<path class="st1" d="M121.2,0c-4.1,0-7.1,3-7.8,7.8c-0.7,4.4-1.2,6.4-4.7,9.8c-3.4,3.4-5.4,4-9.8,4.6C94.1,23,91.1,26,91.1,30
	c0,2,0.8,3.9,2.2,5.2c1.3,1.3,3.2,2.2,5.2,2.2c4.1,0,7.1-3,7.8-7.8c0.7-4.4,1.2-6.4,4.6-9.8s5.4-4,9.8-4.6c4.8-0.8,7.8-3.8,7.8-7.8
	c0-2-0.8-3.9-2.2-5.2C125.1,0.8,123.3,0,121.2,0"/>
<path class="st0" d="M130.9,21.5c-1.6,0-3.1,0.8-3.9,2.1c-0.8-1.3-2.3-2.1-3.9-2.1c-2.6,0-4.7,2.1-4.7,4.7v9.2
	c0,0.4,0.3,0.8,0.8,0.8c0.4,0,0.8-0.3,0.8-0.8v-9.2c0-1.7,1.4-3.1,3.1-3.1s3.1,1.4,3.1,3.1v9.2c0,0.4,0.3,0.8,0.8,0.8
	c0.4,0,0.8-0.3,0.8-0.8v-9.2c0-1.7,1.4-3.1,3.1-3.1c1.7,0,3.1,1.4,3.1,3.1v9.2c0,0.4,0.3,0.8,0.8,0.8c0.4,0,0.8-0.3,0.8-0.8v-9.2
	C135.6,23.6,133.5,21.5,130.9,21.5 M190.2,21.5c-2.6,0-4.7,2.1-4.7,4.7v9.1c0,0.4,0.3,0.8,0.8,0.8s0.8-0.3,0.8-0.8v-9.1
	c0-1.8,1.4-3.2,3.2-3.2s3.2,1.4,3.2,3.2v9.1c0,0.4,0.3,0.8,0.8,0.8c0.4,0,0.8-0.3,0.8-0.8v-9.1C194.9,23.6,192.8,21.5,190.2,21.5
	 M179.2,21.5c-2.6,0-4.7,2.1-4.7,4.7v9.1c0,0.4,0.3,0.8,0.8,0.8s0.8-0.3,0.8-0.8v-9.1c0-1.8,1.4-3.2,3.2-3.2s3.2,1.4,3.2,3.2
	c0,0.4,0.3,0.8,0.8,0.8c0.4,0,0.8-0.3,0.8-0.8C183.9,23.6,181.8,21.5,179.2,21.5 M143,21.5c-2.6,0-4.7,2.1-4.7,4.7v5.2
	c0,2.6,2.1,4.7,4.7,4.7c2.6,0,4.7-2.1,4.7-4.7v-5.2C147.7,23.6,145.6,21.5,143,21.5 M146.1,31.4c0,1.8-1.4,3.2-3.2,3.2
	s-3.2-1.4-3.2-3.2v-5.2c0-1.8,1.4-3.2,3.2-3.2s3.2,1.4,3.2,3.2V31.4z M159,16.5c-0.4,0-0.8,0.3-0.8,0.8v5.4c-0.8-0.8-2-1.2-3.2-1.2
	c-2.6,0-4.7,2.1-4.7,4.7v5.2c0,2.6,2.1,4.7,4.7,4.7c2.6,0,4.7-2.1,4.7-4.7v-5.2v-8.9C159.8,16.9,159.4,16.5,159,16.5 M158.2,31.4
	c0,1.8-1.4,3.2-3.2,3.2s-3.2-1.4-3.2-3.2v-5.2c0-1.8,1.4-3.2,3.2-3.2s3.2,1.4,3.2,3.2V31.4z M167.1,21.5c-2.6,0-4.7,2.1-4.7,4.7v1.7
	c0,0.1,0,0.1,0,0.2s0,0.1,0,0.2v3.1c0,2.6,2.1,4.7,4.7,4.7c2.6,0,4.7-2.1,4.7-4.7c0-0.4-0.3-0.8-0.8-0.8c-0.4,0-0.8,0.3-0.8,0.8
	c0,1.8-1.4,3.2-3.2,3.2s-3.2-1.4-3.2-3.2v-2.5h7.1c0.4,0,0.8-0.3,0.8-0.8v-1.9C171.9,23.6,169.7,21.5,167.1,21.5 M170.3,27.3H164
	v-1.1c0-1.8,1.4-3.2,3.2-3.2s3.2,1.4,3.2,3.2L170.3,27.3L170.3,27.3z M214.6,21.5c-0.7,0-1.2,0.5-1.2,1.2V31c0,1.5-1.2,2.7-2.7,2.7
	S208,32.5,208,31v-8.3c0-0.7-0.5-1.2-1.2-1.2s-1.2,0.5-1.2,1.2V31c0,1.5-1.2,2.7-2.7,2.7s-2.7-1.2-2.7-2.7v-8.3
	c0-0.7-0.5-1.2-1.2-1.2s-1.2,0.5-1.2,1.2V31c0,2.8,2.3,5.1,5.1,5.1c1.6,0,3-0.7,3.9-1.8c0.9,1.1,2.3,1.8,3.9,1.8
	c2.8,0,5.1-2.3,5.1-5.1v-8.3C215.8,22,215.3,21.5,214.6,21.5 M234.9,21.5c-1,0-1.9,0.3-2.7,0.8v-4.6c0-0.7-0.5-1.2-1.2-1.2
	s-1.2,0.5-1.2,1.2v8.9v4.1v0.2c0,2.8,2.3,5.1,5.2,5.1c2.8,0,5.1-2.3,5.1-5.1v-4.3C240,23.8,237.7,21.5,234.9,21.5 M237.6,30.9
	c0,1.5-1.2,2.7-2.7,2.7s-2.7-1.2-2.7-2.7v-0.2v-4.1c0-1.5,1.2-2.7,2.7-2.7s2.7,1.2,2.7,2.7V30.9z M222.8,21.5
	c-2.8,0-5.1,2.3-5.1,5.2V31c0,2.8,2.3,5.2,5.1,5.2c2.4,0,4.2-1.7,4.8-3.3c0.2-0.6-0.1-1.3-0.7-1.5c-0.6-0.2-1.3,0.1-1.5,0.7
	c-0.2,0.6-1.1,1.7-2.5,1.7c-1.5,0-2.7-1.2-2.7-2.7v-1.6h6.7c0.7,0,1.2-0.5,1.2-1.2v-1.4C227.9,23.8,225.6,21.5,222.8,21.5
	 M225.5,26.9H220v-0.2c0-1.5,1.2-2.7,2.7-2.7s2.7,1.2,2.7,2.7v0.2H225.5z"/>
</svg>
